<?xml version="1.0" encoding="UTF-8" standalone="no"?>
<svg
   xmlns:dc="http://purl.org/dc/elements/1.1/"
   xmlns:cc="http://creativecommons.org/ns#"
   xmlns:rdf="http://www.w3.org/1999/02/22-rdf-syntax-ns#"
   xmlns:svg="http://www.w3.org/2000/svg"
   xmlns="http://www.w3.org/2000/svg"
   xmlns:sodipodi="http://sodipodi.sourceforge.net/DTD/sodipodi-0.dtd"
   xmlns:inkscape="http://www.inkscape.org/namespaces/inkscape"
   width="100%"
   height="100%"
   viewBox="0 0 1716 800"
   version="1.1"
   xml:space="preserve"
   style="fill-rule:evenodd;clip-rule:evenodd;stroke-linejoin:round;stroke-miterlimit:1.41421;"
   id="svg2"
   inkscape:version="0.91 r13725"
   sodipodi:docname="Logo.svg"><metadata
     id="metadata75"><rdf:RDF><cc:Work
         rdf:about=""><dc:format>image/svg+xml</dc:format><dc:type
           rdf:resource="http://purl.org/dc/dcmitype/StillImage" /></cc:Work></rdf:RDF></metadata><sodipodi:namedview
     pagecolor="#ffffff"
     bordercolor="#666666"
     borderopacity="1"
     objecttolerance="10"
     gridtolerance="10"
     guidetolerance="10"
     inkscape:pageopacity="0"
     inkscape:pageshadow="2"
     inkscape:window-width="1050"
     inkscape:window-height="801"
     id="namedview73"
     showgrid="false"
     inkscape:zoom="0.18065268"
     inkscape:cx="1320.2129"
     inkscape:cy="400"
     inkscape:window-x="0"
     inkscape:window-y="0"
     inkscape:window-maximized="0"
     inkscape:current-layer="svg2" /><g
     id="Artboard1"
     transform="matrix(2.14482,0,0,1,0,0)"><g
       transform="matrix(1,0,0,1,39.8658,0)"
       id="g5"><g
         transform="matrix(0.46624,0,0,1,-23.571,-121.044)"
         id="g7"><g
           transform="matrix(1,0,0,1,-13.7229,0)"
           id="g9"><path
             d="M413.723,526.678C587.144,526.678 681.425,450.588 681.425,450.588C681.425,450.588 707.654,567.195 637.121,634.385C582.973,685.968 489.039,715.059 413.723,715.059C341.217,715.059 257.872,682.436 204.677,633.262C130.64,564.819 150.573,450.705 150.573,450.705C150.573,450.705 240.302,526.678 413.723,526.678Z"
             style="fill:white;"
             id="path11" /><clipPath
             id="_clip1"><path
               d="M413.723,526.678C587.144,526.678 681.425,450.588 681.425,450.588C681.425,450.588 707.654,567.195 637.121,634.385C582.973,685.968 489.039,715.059 413.723,715.059C341.217,715.059 257.872,682.436 204.677,633.262C130.64,564.819 150.573,450.705 150.573,450.705C150.573,450.705 240.302,526.678 413.723,526.678Z"
               id="path14" /></clipPath><g
             clip-path="url(#_clip1)"
             id="g16"><g
               transform="matrix(0.706452,0,0,0.766898,132.391,185.01)"
               id="g18"><path
                 style="fill:url(#_Linear2)"
                 d="m -6.5100002,-26.624001 821.4929802,0 0,868.703981 -821.4929802,0 z"
                 id="rect20" /></g></g></g><g
           transform="matrix(1,0,0,1,-46.6878,-4.41445)"
           id="g22"><path
             d="M449.27,331.443C480.232,331.443 512.483,331.328 543.083,334.833C570.808,338.008 586.97,339.571 586.97,339.571L642.892,382.651C642.892,382.651 593.426,375.207 555.599,374.323C502.01,373.071 480.028,372.592 452.245,374.042C421.35,375.655 381.63,381.327 347.943,391.769C308.158,404.1 278.708,421.498 278.708,421.498C278.708,421.498 309.096,437.767 354.027,445.411C395.423,452.453 421.498,453.124 455.557,452.957C511.455,452.683 541.374,446.669 574.189,438.134C625.616,424.758 665.685,403.48 665.685,403.48L708.693,427.257C708.693,427.257 661.725,457.206 610.867,473.538C567.764,487.38 511.189,498.898 449.27,498.898C376.366,498.898 312.907,484.658 268.085,466.395C229.923,450.845 191.564,425.54 191.564,425.54C191.564,425.54 314.295,331.443 449.27,331.443Z"
             style="fill:white;"
             id="path24" /><clipPath
             id="_clip3"><path
               d="M449.27,331.443C480.232,331.443 512.483,331.328 543.083,334.833C570.808,338.008 586.97,339.571 586.97,339.571L642.892,382.651C642.892,382.651 593.426,375.207 555.599,374.323C502.01,373.071 480.028,372.592 452.245,374.042C421.35,375.655 381.63,381.327 347.943,391.769C308.158,404.1 278.708,421.498 278.708,421.498C278.708,421.498 309.096,437.767 354.027,445.411C395.423,452.453 421.498,453.124 455.557,452.957C511.455,452.683 541.374,446.669 574.189,438.134C625.616,424.758 665.685,403.48 665.685,403.48L708.693,427.257C708.693,427.257 661.725,457.206 610.867,473.538C567.764,487.38 511.189,498.898 449.27,498.898C376.366,498.898 312.907,484.658 268.085,466.395C229.923,450.845 191.564,425.54 191.564,425.54C191.564,425.54 314.295,331.443 449.27,331.443Z"
               id="path27" /></clipPath><g
             clip-path="url(#_clip3)"
             id="g29"><g
               transform="matrix(1,0,0,1,50.1287,125.458)"
               id="g31"><path
                 style="fill:url(#_Linear4)"
                 d="m -6.5100002,-26.624001 821.4929802,0 0,868.703981 -821.4929802,0 z"
                 id="rect33" /></g></g></g></g><g
         transform="matrix(4.95072,0,0,10.6184,-3165.58,-4413.74)"
         id="g35"><clipPath
           id="_clip5"><path
             d="M715.352,459.076C719.216,459.076 722.504,456.628 723.44,453.124C723.536,452.74 723.32,452.5 722.912,452.5L720.08,452.5C719.744,452.5 719.552,452.668 719.408,452.98C718.736,454.444 717.176,455.332 715.352,455.332C712.376,455.332 710.456,453.34 710.456,450.34C710.456,447.34 712.376,445.348 715.352,445.348C717.176,445.348 718.736,446.236 719.408,447.7C719.552,448.012 719.744,448.18 720.08,448.18L722.912,448.18C723.32,448.18 723.536,447.916 723.44,447.508C722.456,444.004 719.192,441.604 715.352,441.604C710.288,441.604 706.616,445.396 706.616,450.34C706.616,455.284 710.288,459.076 715.352,459.076ZM728.144,450.34C728.144,449.86 728.528,449.524 729.416,449.524C729.968,449.524 730.376,449.764 730.544,450.148C730.712,450.484 730.832,450.676 731.192,450.676L733.544,450.676C733.928,450.676 734.168,450.46 734.12,450.052C733.832,447.508 731.648,446.404 729.416,446.404C726.896,446.404 724.544,447.628 724.544,450.34C724.544,454.996 730.808,453.412 730.808,455.14C730.808,455.62 730.424,455.956 729.416,455.956C728.696,455.956 728.24,455.716 728.048,455.308C727.88,454.996 727.76,454.804 727.4,454.804L725.048,454.804C724.664,454.804 724.424,455.02 724.472,455.428C724.76,457.972 726.968,459.076 729.416,459.076C732.056,459.076 734.408,457.9 734.408,455.14C734.408,450.46 728.144,452.116 728.144,450.34ZM742.088,459.076C745.616,459.076 748.448,456.316 748.448,452.74C748.448,449.164 745.616,446.404 742.088,446.404C738.56,446.404 735.728,449.164 735.728,452.74C735.728,456.316 738.56,459.076 742.088,459.076ZM742.088,455.572C740.528,455.572 739.328,454.444 739.328,452.74C739.328,451.036 740.528,449.908 742.088,449.908C743.648,449.908 744.848,451.036 744.848,452.74C744.848,454.444 743.648,455.572 742.088,455.572ZM760.136,446.74L757.736,446.74C757.352,446.74 757.136,446.956 757.136,447.34L757.136,453.748C757.136,455.164 756.464,455.764 755.384,455.764C754.472,455.764 753.776,455.236 753.776,454.036L753.776,447.34C753.776,446.956 753.56,446.74 753.176,446.74L750.776,446.74C750.392,446.74 750.176,446.956 750.176,447.34L750.176,454.348C750.176,457.348 751.784,459.076 754.016,459.076C755.55,459.076 756.572,458.478 757.136,457.644L757.136,458.14C757.136,458.524 757.352,458.74 757.736,458.74L760.136,458.74C760.52,458.74 760.736,458.524 760.736,458.14L760.736,447.34C760.736,446.956 760.52,446.74 760.136,446.74ZM770.552,446.404C768.946,446.404 767.778,446.946 766.976,447.86L766.976,447.34C766.976,446.956 766.76,446.74 766.376,446.74L763.976,446.74C763.592,446.74 763.376,446.956 763.376,447.34L763.376,462.94C763.376,463.324 763.592,463.54 763.976,463.54L766.376,463.54C766.76,463.54 766.976,463.324 766.976,462.94L766.976,457.619C767.778,458.534 768.946,459.076 770.552,459.076C773.696,459.076 776.288,456.316 776.288,452.74C776.288,449.164 773.696,446.404 770.552,446.404ZM769.832,455.668C768.176,455.668 766.976,454.54 766.976,452.74C766.976,450.94 768.176,449.812 769.832,449.812C771.488,449.812 772.688,450.94 772.688,452.74C772.688,454.54 771.488,455.668 769.832,455.668Z"
             clip-rule="nonzero"
             id="path38" /></clipPath><g
           clip-path="url(#_clip5)"
           id="g40"><path
             d="M715.352,459.076C719.216,459.076 722.504,456.628 723.44,453.124C723.536,452.74 723.32,452.5 722.912,452.5L720.08,452.5C719.744,452.5 719.552,452.668 719.408,452.98C718.736,454.444 717.176,455.332 715.352,455.332C712.376,455.332 710.456,453.34 710.456,450.34C710.456,447.34 712.376,445.348 715.352,445.348C717.176,445.348 718.736,446.236 719.408,447.7C719.552,448.012 719.744,448.18 720.08,448.18L722.912,448.18C723.32,448.18 723.536,447.916 723.44,447.508C722.456,444.004 719.192,441.604 715.352,441.604C710.288,441.604 706.616,445.396 706.616,450.34C706.616,455.284 710.288,459.076 715.352,459.076Z"
             style="fill:black;fill-rule:nonzero;"
             id="path42" /><path
             d="M728.144,450.34C728.144,449.86 728.528,449.524 729.416,449.524C729.968,449.524 730.376,449.764 730.544,450.148C730.712,450.484 730.832,450.676 731.192,450.676L733.544,450.676C733.928,450.676 734.168,450.46 734.12,450.052C733.832,447.508 731.648,446.404 729.416,446.404C726.896,446.404 724.544,447.628 724.544,450.34C724.544,454.996 730.808,453.412 730.808,455.14C730.808,455.62 730.424,455.956 729.416,455.956C728.696,455.956 728.24,455.716 728.048,455.308C727.88,454.996 727.76,454.804 727.4,454.804L725.048,454.804C724.664,454.804 724.424,455.02 724.472,455.428C724.76,457.972 726.968,459.076 729.416,459.076C732.056,459.076 734.408,457.9 734.408,455.14C734.408,450.46 728.144,452.116 728.144,450.34Z"
             style="fill:black;fill-rule:nonzero;"
             id="path44" /><path
             d="M742.088,459.076C745.616,459.076 748.448,456.316 748.448,452.74C748.448,449.164 745.616,446.404 742.088,446.404C738.56,446.404 735.728,449.164 735.728,452.74C735.728,456.316 738.56,459.076 742.088,459.076ZM742.088,455.572C740.528,455.572 739.328,454.444 739.328,452.74C739.328,451.036 740.528,449.908 742.088,449.908C743.648,449.908 744.848,451.036 744.848,452.74C744.848,454.444 743.648,455.572 742.088,455.572Z"
             style="fill:black;fill-rule:nonzero;"
             id="path46" /><path
             d="M760.136,446.74L757.736,446.74C757.352,446.74 757.136,446.956 757.136,447.34L757.136,453.748C757.136,455.164 756.464,455.764 755.384,455.764C754.472,455.764 753.776,455.236 753.776,454.036L753.776,447.34C753.776,446.956 753.56,446.74 753.176,446.74L750.776,446.74C750.392,446.74 750.176,446.956 750.176,447.34L750.176,454.348C750.176,457.348 751.784,459.076 754.016,459.076C755.55,459.076 756.572,458.478 757.136,457.644L757.136,458.14C757.136,458.524 757.352,458.74 757.736,458.74L760.136,458.74C760.52,458.74 760.736,458.524 760.736,458.14L760.736,447.34C760.736,446.956 760.52,446.74 760.136,446.74Z"
             style="fill:black;fill-rule:nonzero;"
             id="path48" /><path
             d="M770.552,446.404C768.946,446.404 767.778,446.946 766.976,447.86L766.976,447.34C766.976,446.956 766.76,446.74 766.376,446.74L763.976,446.74C763.592,446.74 763.376,446.956 763.376,447.34L763.376,462.94C763.376,463.324 763.592,463.54 763.976,463.54L766.376,463.54C766.76,463.54 766.976,463.324 766.976,462.94L766.976,457.619C767.778,458.534 768.946,459.076 770.552,459.076C773.696,459.076 776.288,456.316 776.288,452.74C776.288,449.164 773.696,446.404 770.552,446.404ZM769.832,455.668C768.176,455.668 766.976,454.54 766.976,452.74C766.976,450.94 768.176,449.812 769.832,449.812C771.488,449.812 772.688,450.94 772.688,452.74C772.688,454.54 771.488,455.668 769.832,455.668Z"
             style="fill:black;fill-rule:nonzero;"
             id="path50" /><g
             transform="matrix(0.162783,0,0,0.0722235,646.459,421.693)"
             id="g52"><path
               style="fill:url(#_Linear6)"
               d="m -6.5100002,-26.624001 821.4929802,0 0,868.703981 -821.4929802,0 z"
               id="rect54" /></g></g></g></g></g><defs
     id="defs56"><linearGradient
       id="_Linear2"
       x1="0"
       y1="0"
       x2="1"
       y2="0"
       gradientUnits="userSpaceOnUse"
       gradientTransform="matrix(668.978,685.951,-685.951,668.978,58.4147,76.6466)"><stop
         offset="0%"
         style="stop-color:rgb(65,160,234);stop-opacity:1"
         id="stop59" /><stop
         offset="100%"
         style="stop-color:rgb(117,244,210);stop-opacity:1"
         id="stop61" /></linearGradient><linearGradient
       id="_Linear4"
       x1="0"
       y1="0"
       x2="1"
       y2="0"
       gradientUnits="userSpaceOnUse"
       gradientTransform="matrix(668.978,685.951,-685.951,668.978,58.4147,76.6466)"><stop
         offset="0%"
         style="stop-color:rgb(65,160,234);stop-opacity:1"
         id="stop64" /><stop
         offset="100%"
         style="stop-color:rgb(117,244,210);stop-opacity:1"
         id="stop66" /></linearGradient><linearGradient
       id="_Linear6"
       x1="0"
       y1="0"
       x2="1"
       y2="0"
       gradientUnits="userSpaceOnUse"
       gradientTransform="matrix(668.978,685.951,-685.951,668.978,58.4147,76.6466)"><stop
         offset="0%"
         style="stop-color:rgb(65,160,234);stop-opacity:1"
         id="stop69" /><stop
         offset="100%"
         style="stop-color:rgb(117,244,210);stop-opacity:1"
         id="stop71" /></linearGradient></defs></svg>